<?xml version="1.0" encoding="iso-8859-1"?>
<!-- Uploaded to: SVG Repo, www.svgrepo.com, Generator: SVG Repo Mixer Tools -->
<!DOCTYPE svg PUBLIC "-//W3C//DTD SVG 1.1//EN" "http://www.w3.org/Graphics/SVG/1.1/DTD/svg11.dtd">
<svg fill="#000000" height="800px" width="800px" version="1.1" id="Capa_1" xmlns="http://www.w3.org/2000/svg" xmlns:xlink="http://www.w3.org/1999/xlink" 
	 viewBox="0 0 470 470" xml:space="preserve">
<g>
	<path d="M401.17,68.83C356.784,24.444,297.771,0,235,0C172.229,0,113.215,24.444,68.83,68.83C24.444,113.216,0,172.229,0,235
		s24.444,121.784,68.83,166.17C113.215,445.556,172.229,470,235,470c62.771,0,121.784-24.444,166.17-68.83S470,297.771,470,235
		S445.556,113.216,401.17,68.83z M235,455c-121.309,0-220-98.691-220-220S113.691,15,235,15s220,98.691,220,220S356.309,455,235,455
		z"/>
	<path d="M269.067,260.577c-4.143,0-7.5,3.357-7.5,7.5V362c0,4.143,3.357,7.5,7.5,7.5c30.325,0,54.996-24.671,54.996-54.996v-14.253
		c0-24.657,16.378-46.923,39.827-54.146c2.209-0.681,3.98-2.342,4.803-4.503c0.821-2.16,0.601-4.579-0.599-6.555l-70.078-115.516
		c-0.019-0.032-0.042-0.06-0.062-0.091c-0.089-0.143-0.184-0.281-0.283-0.417c-0.042-0.057-0.081-0.117-0.124-0.172
		c-0.132-0.171-0.27-0.337-0.416-0.497c-0.029-0.031-0.058-0.061-0.087-0.091c-0.137-0.145-0.279-0.284-0.427-0.418
		c-0.065-0.059-0.134-0.113-0.201-0.169c-0.109-0.091-0.218-0.181-0.332-0.266c-0.075-0.056-0.152-0.109-0.229-0.162
		c-0.113-0.078-0.229-0.153-0.346-0.225c-0.078-0.048-0.157-0.094-0.236-0.139c-0.123-0.069-0.249-0.134-0.377-0.196
		c-0.079-0.038-0.156-0.077-0.236-0.113c-0.135-0.06-0.275-0.114-0.415-0.167c-0.075-0.028-0.149-0.059-0.225-0.084
		c-0.027-0.009-0.052-0.021-0.079-0.03c-0.61-0.2-13.554-4.387-33.294-6.719c-1.08-7.828-5.761-11.447-9.769-13.115
		C246.169,94.5,240.744,94.5,235,94.5c-5.744,0-11.168,0-15.878,1.96c-4.008,1.667-8.689,5.287-9.769,13.115
		c-19.741,2.333-32.685,6.519-33.294,6.719c-0.024,0.008-0.047,0.019-0.071,0.026c-0.089,0.03-0.177,0.066-0.265,0.1
		c-0.125,0.048-0.25,0.096-0.372,0.15c-0.092,0.041-0.182,0.085-0.272,0.13c-0.114,0.057-0.227,0.114-0.338,0.176
		c-0.091,0.051-0.18,0.104-0.27,0.158c-0.105,0.064-0.208,0.132-0.309,0.201c-0.088,0.06-0.175,0.12-0.26,0.184
		c-0.101,0.075-0.197,0.154-0.293,0.234c-0.079,0.065-0.159,0.129-0.235,0.198c-0.125,0.113-0.244,0.232-0.361,0.353
		c-0.065,0.066-0.129,0.133-0.191,0.203c-0.128,0.142-0.251,0.289-0.367,0.439c-0.046,0.06-0.089,0.124-0.134,0.186
		c-0.096,0.133-0.188,0.268-0.276,0.407c-0.02,0.032-0.043,0.06-0.063,0.092l-70.079,115.516c-1.199,1.976-1.42,4.395-0.598,6.555
		c0.821,2.161,2.593,3.822,4.802,4.503c23.45,7.224,39.828,29.489,39.828,54.146v14.253c0,30.325,24.671,54.996,54.996,54.996
		c4.142,0,7.5-3.357,7.5-7.5v-93.923c0-4.143-3.358-7.5-7.5-7.5s-7.5,3.357-7.5,7.5v85.718c-18.481-3.521-32.496-19.8-32.496-39.291
		v-14.253c0-27.976-16.692-53.522-41.563-65.081l53.716-88.543c2.338,23.013,6.227,57.527,9.989,73.833
		c3.881,16.83,18.994,33.79,44.422,36.602l0,56.829c0,4.142,3.358,7.5,7.5,7.5c4.142,0,7.5-3.358,7.5-7.5l0.001-56.829
		c25.427-2.812,40.539-19.772,44.422-36.602c3.761-16.306,7.65-50.82,9.988-73.833l53.715,88.544
		c-24.871,11.558-41.563,37.104-41.563,65.08v14.253c0,19.491-14.015,35.771-32.496,39.291v-85.718
		C276.567,263.935,273.21,260.577,269.067,260.577z M213.623,124.19l2.207,4.615v9.026c0,4.143,3.358,7.5,7.5,7.5s7.5-3.357,7.5-7.5
		v-10.728c0-1.12-0.251-2.226-0.734-3.236l-5.881-12.295c0.094-0.65,0.23-0.981,0.289-1.062c1.09-1.011,6.978-1.011,10.495-1.011
		s9.405,0,10.486,1.001c0.064,0.086,0.203,0.42,0.298,1.071l-5.881,12.295c-0.483,1.011-0.734,2.116-0.734,3.236v10.728
		c0,4.143,3.357,7.5,7.5,7.5s7.5-3.357,7.5-7.5v-9.026l2.207-4.615c11.956,1.271,21.517,3.341,27.185,4.772
		c-0.537,5.7-1.423,14.831-2.529,25.242h-92.064c-1.106-10.411-1.993-19.541-2.53-25.241
		C192.108,127.531,201.669,125.461,213.623,124.19z M272.306,217.088c-2.392,10.371-11.607,22.276-29.805,24.866v-2.215
		c0-4.142-3.358-7.5-7.5-7.5c-4.142,0-7.5,3.358-7.5,7.5v2.215c-18.199-2.59-27.414-14.494-29.806-24.866
		c-2.421-10.498-4.964-29.6-7.069-47.884h88.75C277.271,187.487,274.728,206.588,272.306,217.088z"/>
	<path d="M235,54c-45.617,0-89.191,17.025-122.695,47.939C78.999,132.671,58.534,174.372,54.68,219.36
		c-0.354,4.127,2.706,7.759,6.833,8.112c4.135,0.354,7.76-2.706,8.113-6.833C76.909,135.608,149.55,69,235,69
		c91.533,0,166,74.468,166,166s-74.467,166-166,166c-85.45,0-158.091-66.608-165.375-151.64c-0.354-4.128-3.987-7.196-8.113-6.833
		c-4.127,0.354-7.186,3.985-6.833,8.112c3.854,44.988,24.318,86.689,57.625,117.421C145.809,398.975,189.383,416,235,416
		c99.804,0,181-81.196,181-181S334.804,54,235,54z"/>
</g>
</svg>